<svg xmlns="http://www.w3.org/2000/svg" viewBox="0 0 192 192" shape-rendering="crispEdges">
<g fill="#000">
<rect x="64" y="21" width="64" height="1"/>
<rect x="64" y="22" width="64" height="1"/>
<rect x="64" y="23" width="64" height="1"/>
<rect x="64" y="24" width="64" height="1"/>
<rect x="64" y="25" width="64" height="1"/>
<rect x="64" y="26" width="64" height="1"/>
<rect x="64" y="27" width="64" height="1"/>
<rect x="64" y="28" width="64" height="1"/>
<rect x="64" y="29" width="64" height="1"/>
<rect x="64" y="30" width="64" height="1"/>
<rect x="64" y="31" width="64" height="1"/>
<rect x="53" y="32" width="86" height="1"/>
<rect x="53" y="33" width="86" height="1"/>
<rect x="53" y="34" width="86" height="1"/>
<rect x="53" y="35" width="86" height="1"/>
<rect x="53" y="36" width="86" height="1"/>
<rect x="53" y="37" width="86" height="1"/>
<rect x="53" y="38" width="86" height="1"/>
<rect x="53" y="39" width="86" height="1"/>
<rect x="53" y="40" width="86" height="1"/>
<rect x="53" y="41" width="86" height="1"/>
<rect x="53" y="42" width="86" height="1"/>
<rect x="43" y="43" width="106" height="1"/>
<rect x="43" y="44" width="106" height="1"/>
<rect x="43" y="45" width="106" height="1"/>
<rect x="43" y="46" width="106" height="1"/>
<rect x="43" y="47" width="106" height="1"/>
<rect x="43" y="48" width="106" height="1"/>
<rect x="43" y="49" width="106" height="1"/>
<rect x="43" y="50" width="106" height="1"/>
<rect x="43" y="51" width="106" height="1"/>
<rect x="43" y="52" width="106" height="1"/>
<rect x="32" y="53" width="53" height="1"/>
<rect x="107" y="53" width="42" height="1"/>
<rect x="32" y="54" width="53" height="1"/>
<rect x="107" y="54" width="42" height="1"/>
<rect x="32" y="55" width="53" height="1"/>
<rect x="107" y="55" width="42" height="1"/>
<rect x="32" y="56" width="53" height="1"/>
<rect x="107" y="56" width="42" height="1"/>
<rect x="32" y="57" width="53" height="1"/>
<rect x="107" y="57" width="42" height="1"/>
<rect x="32" y="58" width="53" height="1"/>
<rect x="107" y="58" width="42" height="1"/>
<rect x="32" y="59" width="53" height="1"/>
<rect x="107" y="59" width="42" height="1"/>
<rect x="32" y="60" width="53" height="1"/>
<rect x="107" y="60" width="42" height="1"/>
<rect x="32" y="61" width="53" height="1"/>
<rect x="107" y="61" width="42" height="1"/>
<rect x="32" y="62" width="53" height="1"/>
<rect x="107" y="62" width="42" height="1"/>
<rect x="32" y="63" width="53" height="1"/>
<rect x="107" y="63" width="42" height="1"/>
<rect x="21" y="64" width="43" height="1"/>
<rect x="128" y="64" width="32" height="1"/>
<rect x="21" y="65" width="43" height="1"/>
<rect x="128" y="65" width="32" height="1"/>
<rect x="21" y="66" width="43" height="1"/>
<rect x="128" y="66" width="32" height="1"/>
<rect x="21" y="67" width="43" height="1"/>
<rect x="128" y="67" width="32" height="1"/>
<rect x="21" y="68" width="43" height="1"/>
<rect x="128" y="68" width="32" height="1"/>
<rect x="21" y="69" width="43" height="1"/>
<rect x="128" y="69" width="32" height="1"/>
<rect x="21" y="70" width="43" height="1"/>
<rect x="128" y="70" width="32" height="1"/>
<rect x="21" y="71" width="43" height="1"/>
<rect x="128" y="71" width="32" height="1"/>
<rect x="21" y="72" width="43" height="1"/>
<rect x="128" y="72" width="32" height="1"/>
<rect x="21" y="73" width="43" height="1"/>
<rect x="128" y="73" width="32" height="1"/>
<rect x="21" y="74" width="43" height="1"/>
<rect x="128" y="74" width="32" height="1"/>
<rect x="21" y="75" width="43" height="1"/>
<rect x="139" y="75" width="21" height="1"/>
<rect x="21" y="76" width="43" height="1"/>
<rect x="139" y="76" width="21" height="1"/>
<rect x="21" y="77" width="43" height="1"/>
<rect x="139" y="77" width="21" height="1"/>
<rect x="21" y="78" width="43" height="1"/>
<rect x="139" y="78" width="21" height="1"/>
<rect x="21" y="79" width="43" height="1"/>
<rect x="139" y="79" width="21" height="1"/>
<rect x="21" y="80" width="43" height="1"/>
<rect x="139" y="80" width="21" height="1"/>
<rect x="21" y="81" width="43" height="1"/>
<rect x="139" y="81" width="21" height="1"/>
<rect x="21" y="82" width="43" height="1"/>
<rect x="139" y="82" width="21" height="1"/>
<rect x="21" y="83" width="43" height="1"/>
<rect x="139" y="83" width="21" height="1"/>
<rect x="21" y="84" width="43" height="1"/>
<rect x="139" y="84" width="21" height="1"/>
<rect x="21" y="85" width="32" height="1"/>
<rect x="139" y="85" width="21" height="1"/>
<rect x="21" y="86" width="32" height="1"/>
<rect x="139" y="86" width="21" height="1"/>
<rect x="21" y="87" width="32" height="1"/>
<rect x="139" y="87" width="21" height="1"/>
<rect x="21" y="88" width="32" height="1"/>
<rect x="139" y="88" width="21" height="1"/>
<rect x="21" y="89" width="32" height="1"/>
<rect x="139" y="89" width="21" height="1"/>
<rect x="21" y="90" width="32" height="1"/>
<rect x="139" y="90" width="21" height="1"/>
<rect x="21" y="91" width="32" height="1"/>
<rect x="139" y="91" width="21" height="1"/>
<rect x="21" y="92" width="32" height="1"/>
<rect x="139" y="92" width="21" height="1"/>
<rect x="21" y="93" width="32" height="1"/>
<rect x="139" y="93" width="21" height="1"/>
<rect x="21" y="94" width="32" height="1"/>
<rect x="139" y="94" width="21" height="1"/>
<rect x="21" y="95" width="32" height="1"/>
<rect x="139" y="95" width="21" height="1"/>
<rect x="32" y="96" width="21" height="1"/>
<rect x="139" y="96" width="21" height="1"/>
<rect x="32" y="97" width="21" height="1"/>
<rect x="139" y="97" width="21" height="1"/>
<rect x="32" y="98" width="21" height="1"/>
<rect x="139" y="98" width="21" height="1"/>
<rect x="32" y="99" width="21" height="1"/>
<rect x="139" y="99" width="21" height="1"/>
<rect x="32" y="100" width="21" height="1"/>
<rect x="139" y="100" width="21" height="1"/>
<rect x="32" y="101" width="21" height="1"/>
<rect x="139" y="101" width="21" height="1"/>
<rect x="32" y="102" width="21" height="1"/>
<rect x="139" y="102" width="21" height="1"/>
<rect x="32" y="103" width="21" height="1"/>
<rect x="139" y="103" width="21" height="1"/>
<rect x="32" y="104" width="21" height="1"/>
<rect x="139" y="104" width="21" height="1"/>
<rect x="32" y="105" width="21" height="1"/>
<rect x="139" y="105" width="21" height="1"/>
<rect x="32" y="106" width="21" height="1"/>
<rect x="139" y="106" width="21" height="1"/>
<rect x="32" y="107" width="21" height="1"/>
<rect x="139" y="107" width="21" height="1"/>
<rect x="32" y="108" width="21" height="1"/>
<rect x="139" y="108" width="21" height="1"/>
<rect x="32" y="109" width="21" height="1"/>
<rect x="139" y="109" width="21" height="1"/>
<rect x="32" y="110" width="21" height="1"/>
<rect x="139" y="110" width="21" height="1"/>
<rect x="32" y="111" width="21" height="1"/>
<rect x="139" y="111" width="21" height="1"/>
<rect x="32" y="112" width="21" height="1"/>
<rect x="139" y="112" width="21" height="1"/>
<rect x="32" y="113" width="21" height="1"/>
<rect x="139" y="113" width="21" height="1"/>
<rect x="32" y="114" width="21" height="1"/>
<rect x="139" y="114" width="21" height="1"/>
<rect x="32" y="115" width="21" height="1"/>
<rect x="139" y="115" width="21" height="1"/>
<rect x="32" y="116" width="21" height="1"/>
<rect x="139" y="116" width="21" height="1"/>
<rect x="32" y="117" width="21" height="1"/>
<rect x="32" y="118" width="21" height="1"/>
<rect x="32" y="119" width="21" height="1"/>
<rect x="32" y="120" width="21" height="1"/>
<rect x="32" y="121" width="21" height="1"/>
<rect x="32" y="122" width="21" height="1"/>
<rect x="32" y="123" width="21" height="1"/>
<rect x="32" y="124" width="21" height="1"/>
<rect x="32" y="125" width="21" height="1"/>
<rect x="32" y="126" width="21" height="1"/>
<rect x="32" y="127" width="21" height="1"/>
<rect x="43" y="128" width="21" height="1"/>
<rect x="43" y="129" width="21" height="1"/>
<rect x="43" y="130" width="21" height="1"/>
<rect x="43" y="131" width="21" height="1"/>
<rect x="43" y="132" width="21" height="1"/>
<rect x="43" y="133" width="21" height="1"/>
<rect x="43" y="134" width="21" height="1"/>
<rect x="43" y="135" width="21" height="1"/>
<rect x="43" y="136" width="21" height="1"/>
<rect x="43" y="137" width="21" height="1"/>
<rect x="43" y="138" width="21" height="1"/>
<rect x="43" y="139" width="32" height="1"/>
<rect x="128" y="139" width="11" height="1"/>
<rect x="43" y="140" width="32" height="1"/>
<rect x="128" y="140" width="11" height="1"/>
<rect x="43" y="141" width="32" height="1"/>
<rect x="128" y="141" width="11" height="1"/>
<rect x="43" y="142" width="32" height="1"/>
<rect x="128" y="142" width="11" height="1"/>
<rect x="43" y="143" width="32" height="1"/>
<rect x="128" y="143" width="11" height="1"/>
<rect x="43" y="144" width="32" height="1"/>
<rect x="128" y="144" width="11" height="1"/>
<rect x="43" y="145" width="32" height="1"/>
<rect x="128" y="145" width="11" height="1"/>
<rect x="43" y="146" width="32" height="1"/>
<rect x="128" y="146" width="11" height="1"/>
<rect x="43" y="147" width="32" height="1"/>
<rect x="128" y="147" width="11" height="1"/>
<rect x="43" y="148" width="32" height="1"/>
<rect x="128" y="148" width="11" height="1"/>
<rect x="75" y="149" width="42" height="1"/>
<rect x="75" y="150" width="42" height="1"/>
<rect x="75" y="151" width="42" height="1"/>
<rect x="75" y="152" width="42" height="1"/>
<rect x="75" y="153" width="42" height="1"/>
<rect x="75" y="154" width="42" height="1"/>
<rect x="75" y="155" width="42" height="1"/>
<rect x="75" y="156" width="42" height="1"/>
<rect x="75" y="157" width="42" height="1"/>
<rect x="75" y="158" width="42" height="1"/>
<rect x="75" y="159" width="42" height="1"/>
</g>
</svg>
